# Blender v2.79 (sub 0) OBJ File: 'dial.blend'
# www.blender.org
mtllib dial.mtl
o Cylinder.003_Cylinder.007
v 0.203149 -0.145242 0.475661
v -0.184760 -0.145242 0.475661
v 0.203149 -0.402206 0.291075
v -0.184760 -0.402205 0.291075
v 0.203149 -0.501603 -0.004964
v -0.184760 -0.501603 -0.004964
v 0.203149 -0.405467 -0.299378
v -0.184760 -0.405467 -0.299378
v 0.203149 -0.150520 -0.479713
v -0.184760 -0.150520 -0.479712
v 0.203149 0.165859 -0.477085
v -0.184760 0.165859 -0.477085
v 0.203149 0.422822 -0.292499
v -0.184760 0.422822 -0.292499
v 0.203149 0.522219 0.003540
v -0.184760 0.522219 0.003540
v 0.203149 0.426084 0.297954
v -0.184760 0.426084 0.297954
v 0.203149 0.171136 0.478289
v -0.184760 0.171136 0.478289
vt 0.000000 0.000000
vt 0.000000 0.000000
vt 0.000000 0.000000
vt 0.000000 0.000000
vt 0.000000 0.000000
vt 0.000000 0.000000
vt 0.000000 0.000000
vt 0.000000 0.000000
vt 0.000000 0.000000
vt 0.000000 0.000000
vt 0.000000 0.000000
vt 0.000000 0.000000
vt 0.000000 0.000000
vt 0.000000 0.000000
vt 0.000000 0.000000
vt 0.000000 0.000000
vt 0.000000 0.000000
vt 0.000000 0.000000
vt 0.000000 0.000000
vt 0.000000 0.000000
vt 1.000655 0.485851
vt 0.796678 0.485851
vt 0.796678 0.004497
vt 1.000655 0.004496
vt 0.794976 0.526749
vt 0.588984 0.526749
vt 0.588984 -0.013236
vt 0.794976 -0.013236
vt 0.581833 0.489981
vt 0.398542 0.489982
vt 0.398542 0.031255
vt 0.581833 0.031254
vt 0.396002 0.485210
vt 0.204625 0.485210
vt 0.204625 0.005137
vt 0.396002 0.005139
vt 0.203262 0.484116
vt -0.014262 0.484116
vt -0.014262 0.006232
vt 0.203262 0.006232
vt 0.986738 0.984095
vt 0.773095 0.984095
vt 0.773095 0.556446
vt 0.986738 0.556446
vt 0.794171 0.972658
vt 0.577289 0.972658
vt 0.577289 0.552438
vt 0.794171 0.552439
vt 0.605214 0.962777
vt 0.375160 0.962777
vt 0.375160 0.554598
vt 0.605214 0.554597
vt 0.388322 0.959142
vt 0.207122 0.959143
vt 0.207122 0.542788
vt 0.388322 0.542788
vt 0.202411 0.980310
vt 0.004481 0.980310
vt 0.004481 0.537065
vt 0.202411 0.537064
vn -1.0000 0.0000 -0.0000
vn 1.0000 -0.0000 0.0000
vn -0.0000 -0.5834 0.8122
vn -0.0000 -0.9480 0.3183
vn -0.0000 -0.9506 -0.3104
vn -0.0000 -0.5775 -0.8164
vn -0.0000 0.0083 -1.0000
vn 0.0000 0.5834 -0.8122
vn 0.0000 0.9480 -0.3183
vn 0.0000 0.9506 0.3104
vn 0.0000 0.5775 0.8164
vn 0.0000 -0.0083 1.0000
usemtl None
s off
f 4/1/1 2/2/1 20/3/1 18/4/1 16/5/1 14/6/1 12/7/1 10/8/1 8/9/1 6/10/1
f 1/11/2 3/12/2 5/13/2 7/14/2 9/15/2 11/16/2 13/17/2 15/18/2 17/19/2 19/20/2
usemtl None_Americana_Block_Numbers_CHB_large.jpg
f 1/21/3 2/22/3 4/23/3 3/24/3
f 3/25/4 4/26/4 6/27/4 5/28/4
f 5/29/5 6/30/5 8/31/5 7/32/5
f 7/33/6 8/34/6 10/35/6 9/36/6
f 9/37/7 10/38/7 12/39/7 11/40/7
f 11/41/8 12/42/8 14/43/8 13/44/8
f 13/45/9 14/46/9 16/47/9 15/48/9
f 15/49/10 16/50/10 18/51/10 17/52/10
f 17/53/11 18/54/11 20/55/11 19/56/11
f 19/57/12 20/58/12 2/59/12 1/60/12
