# Blender v2.79 (sub 0) OBJ File: 'holder.blend'
# www.blender.org
mtllib holder.mtl
o Cube_Cube.001
v -0.756844 0.494229 0.365607
v -0.842755 0.395699 0.411840
v -0.842755 0.395699 -0.490311
v -0.756844 0.494229 -0.444078
v 0.861969 0.395699 0.411840
v 0.768049 0.494229 0.365607
v 0.768049 0.494229 -0.444078
v 0.861969 0.395699 -0.490311
v -0.842755 -0.443869 0.411840
v -0.761804 -0.533561 0.365607
v -0.761804 -0.533561 -0.444078
v -0.842755 -0.443869 -0.490311
v 0.781044 -0.533561 0.365607
v 0.861969 -0.443869 0.411840
v 0.861969 -0.443869 -0.490311
v 0.781044 -0.533561 -0.444078
v -0.835656 0.419800 -0.489113
v -0.892942 0.454042 0.467855
v 0.912156 0.454042 0.467855
v 0.854870 0.419800 -0.489113
v -0.892942 -0.502212 0.467855
v -0.835656 -0.467970 -0.489113
v 0.854870 -0.467970 -0.489113
v 0.912156 -0.502212 0.467855
v -0.892942 0.394911 -0.489834
v -0.892942 0.394911 0.411364
v 0.912156 0.394911 0.411364
v 0.912156 0.394911 -0.489834
v -0.892942 -0.443082 0.411364
v -0.892942 -0.443082 -0.489834
v 0.912156 -0.443082 -0.489834
v 0.912156 -0.443082 0.411364
v -0.818126 0.540477 0.394108
v -0.818126 0.540477 -0.472579
v 0.829758 0.540477 -0.472579
v 0.829758 0.540477 0.394108
v -0.822404 -0.575696 -0.472579
v -0.822404 -0.575696 0.394108
v 0.841618 -0.575696 0.394108
v 0.841618 -0.575696 -0.472579
v -0.760092 0.540477 0.361502
v -0.760092 0.540477 -0.439973
v 0.771724 0.540477 -0.439973
v 0.771724 0.540477 0.361502
v -0.764370 -0.575696 -0.439973
v -0.764370 -0.575696 0.361502
v 0.783584 -0.575696 0.361502
v 0.783584 -0.575696 -0.439973
v 0.912156 -0.502212 -0.546326
v -0.892942 -0.502212 -0.546326
v 0.912156 0.454042 -0.546326
v -0.892942 0.454042 -0.546326
v 0.855260 -0.468752 -0.546326
v -0.836046 -0.468752 -0.546326
v 0.855260 0.420582 -0.546326
v -0.836046 0.420582 -0.546326
vt 0.000000 0.000000
vt 0.000000 0.000000
vt 0.000000 0.000000
vt 0.000000 0.000000
vt 0.000000 0.000000
vt 0.000000 0.000000
vt 0.000000 0.000000
vt 0.000000 0.000000
vt 0.000000 0.000000
vt 0.000000 0.000000
vt 0.000000 0.000000
vt 0.000000 0.000000
vt 0.000000 0.000000
vt 0.000000 0.000000
vt 0.000000 0.000000
vt 0.000000 0.000000
vt 0.000000 0.000000
vt 0.000000 0.000000
vt 0.000000 0.000000
vt 0.000000 0.000000
vt 0.000000 0.000000
vt 0.000000 0.000000
vt 0.000000 0.000000
vt 0.000000 0.000000
vt 0.000000 0.000000
vt 0.000000 0.000000
vt 0.000000 0.000000
vt 0.000000 0.000000
vt 0.000000 0.000000
vt 0.000000 0.000000
vt 0.000000 0.000000
vt 0.000000 0.000000
vt 0.000000 0.000000
vt 0.000000 0.000000
vt 0.000000 0.000000
vt 0.000000 0.000000
vt 0.000000 0.000000
vt 0.000000 0.000000
vt 0.000000 0.000000
vt 0.000000 0.000000
vt 0.997731 0.996436
vt 0.000856 0.996436
vt 0.000856 -0.005591
vt 0.997731 -0.005591
vt 0.398048 0.980934
vt 0.374825 0.999983
vt 0.374825 0.512521
vt 0.398047 0.531569
vt 0.715003 0.531569
vt 0.745720 0.512520
vt 0.745720 0.999983
vt 0.715003 0.980934
vt 0.994153 -0.003017
vt 0.994153 0.994635
vt 0.003615 0.994635
vt 0.003614 -0.003017
vt 0.722394 0.512520
vt 0.402080 0.512520
vt 0.374825 0.472964
vt 0.749649 0.472964
vt 0.347569 0.512538
vt 0.027256 0.512538
vt 0.000000 0.472857
vt 0.374825 0.472857
vt 0.003172 1.002842
vt 0.003172 0.004776
vt 0.998926 0.004776
vt 0.998926 1.002842
vt 0.334364 1.000000
vt 0.334364 0.512538
vt 0.368375 0.532742
vt 0.368375 0.977749
vt 1.000000 0.512520
vt 1.000000 0.999983
vt 0.959082 0.977732
vt 0.959082 0.532725
vt 0.402080 0.000000
vt 0.722394 0.000000
vt 0.749649 0.033868
vt 0.374825 0.033868
vt 0.027256 0.000000
vt 0.347569 0.000000
vt 0.374825 0.033752
vt 0.000000 0.033752
vt 0.996756 1.002616
vt -0.000892 1.002616
vt -0.000892 0.005947
vt 0.996756 0.005947
vt 0.000095 0.000095
vt 0.999905 0.000095
vt 0.999905 0.900723
vt 0.000095 0.900723
vt 1.003540 1.009180
vt 0.000855 1.009179
vt 0.000855 -0.000407
vt 1.003540 -0.000407
vt 0.395703 0.445812
vt 0.728771 0.445812
vt 0.020878 0.445705
vt 0.353946 0.445705
vt 0.728771 0.061020
vt 0.395703 0.061020
vt 0.353946 0.060904
vt 0.020878 0.060904
vt 0.951055 0.548396
vt 0.753747 0.548396
vt 0.745720 0.532725
vt 0.753747 0.962060
vt 0.951055 0.962060
vt 0.745720 0.977732
vt 0.409972 0.965263
vt 0.703079 0.965262
vt 0.703079 0.547241
vt 0.409972 0.547241
vt 0.011700 0.527902
vt 0.011700 0.984635
vt 0.000000 1.000000
vt 0.000000 0.512538
vt 0.322665 0.984635
vt 0.322665 0.527902
vn 0.0157 -0.9999 0.0000
vn -0.0157 -0.9999 0.0000
vn 0.0157 0.9999 0.0000
vn -0.0157 0.9999 0.0000
vn -0.0095 0.0000 -1.0000
vn 0.0095 0.0000 -1.0000
vn 0.0095 0.0000 1.0000
vn -0.0095 0.0000 1.0000
vn 0.9975 0.0701 0.0000
vn -0.9969 0.0792 0.0000
vn 0.0000 -0.0884 -0.9961
vn 0.0000 -0.0884 0.9961
vn 0.9982 -0.0608 0.0000
vn -0.9982 -0.0602 0.0000
vn 0.0000 0.0970 0.9953
vn 0.0000 0.0970 -0.9953
vn 0.0000 0.9999 -0.0137
vn 0.0000 -0.9999 -0.0137
vn 1.0000 0.0000 -0.0068
vn -1.0000 0.0000 -0.0068
vn 0.0000 1.0000 0.0000
vn 0.0000 -0.7084 -0.7058
vn 0.0000 -0.7084 0.7058
vn 1.0000 0.0000 0.0000
vn -0.7561 0.6545 0.0000
vn 0.7238 0.6900 0.0000
vn -1.0000 0.0000 0.0000
vn 0.0000 0.6491 -0.7607
vn 0.0000 0.6491 0.7607
vn -0.7214 -0.6925 0.0000
vn 0.7214 -0.6925 0.0000
vn 0.0000 -1.0000 0.0000
vn 0.0000 0.0000 1.0000
vn 0.0000 0.0000 -1.0000
usemtl None
s off
f 3/1/1 2/2/1 26/3/1 25/4/1
f 5/5/2 8/6/2 28/7/2 27/8/2
f 9/9/3 12/10/3 30/11/3 29/12/3
f 15/13/4 14/14/4 32/15/4 31/16/4
f 14/14/5 5/5/5 27/8/5 32/15/5
f 2/2/6 9/9/6 29/12/6 26/3/6
f 12/10/7 3/1/7 25/4/7 30/11/7
f 8/6/8 15/13/8 31/16/8 28/7/8
f 1/17/9 4/18/9 42/19/9 41/20/9
f 7/21/10 6/22/10 44/23/10 43/24/10
f 6/22/11 1/17/11 41/20/11 44/23/11
f 4/18/12 7/21/12 43/24/12 42/19/12
f 11/25/13 10/26/13 46/27/13 45/28/13
f 13/29/14 16/30/14 48/31/14 47/32/14
f 16/30/15 11/25/15 45/28/15 48/31/15
f 10/26/16 13/29/16 47/32/16 46/27/16
f 22/33/17 23/34/17 53/35/17 54/36/17
f 20/37/18 17/38/18 56/39/18 55/40/18
f 17/38/19 22/33/19 54/36/19 56/39/19
f 23/34/20 20/37/20 55/40/20 53/35/20
usemtl None_Floral-Inspired-Golden-Textures-for-Free-Download-938x500.jpg
f 7/41/21 4/42/21 1/43/21 6/44/21
f 37/45/22 50/46/22 49/47/22 40/48/22
f 39/49/23 24/50/23 21/51/23 38/52/23
f 15/53/24 8/54/24 5/55/24 14/56/24
f 33/57/25 34/58/25 52/59/25 18/60/25
f 35/61/26 36/62/26 19/63/26 51/64/26
f 9/65/27 2/66/27 3/67/27 12/68/27
f 51/69/28 52/70/28 34/71/28 35/72/28
f 18/73/29 19/74/29 36/75/29 33/76/29
f 37/77/30 38/78/30 21/79/30 50/80/30
f 39/81/31 40/82/31 49/83/31 24/84/31
f 11/85/32 16/86/32 13/87/32 10/88/32
f 21/89/33 24/90/33 19/91/33 18/92/33
f 23/93/34 22/94/34 17/95/34 20/96/34
f 25/97/27 26/98/27 18/60/27 52/59/27
f 27/99/24 28/100/24 51/64/24 19/63/24
f 29/101/27 30/102/27 50/80/27 21/79/27
f 31/103/24 32/104/24 24/84/24 49/83/24
f 32/104/24 27/99/24 19/63/24 24/84/24
f 26/98/27 29/101/27 21/79/27 18/60/27
f 30/102/27 25/97/27 52/59/27 50/80/27
f 28/100/24 31/103/24 49/83/24 51/64/24
f 41/105/21 42/106/21 34/107/21 33/76/21
f 43/108/21 44/109/21 36/75/21 35/110/21
f 44/109/21 41/105/21 33/76/21 36/75/21
f 42/106/21 43/108/21 35/110/21 34/107/21
f 45/111/32 46/112/32 38/52/32 37/45/32
f 47/113/32 48/114/32 40/48/32 39/49/32
f 48/114/32 45/111/32 37/45/32 40/48/32
f 46/112/32 47/113/32 39/49/32 38/52/32
f 54/115/34 53/116/34 49/117/34 50/118/34
f 55/119/34 56/120/34 52/70/34 51/69/34
f 56/120/34 54/115/34 50/118/34 52/70/34
f 53/116/34 55/119/34 51/69/34 49/117/34
